<svg width="32" height="32" viewBox="0 0 32 32" fill="none" xmlns="http://www.w3.org/2000/svg">
<path d="M16 3C18.9709 3 21.7476 4.30096 23.6172 6.60742L23.7959 6.83398L24.0391 7.16699C26.4658 10.6406 26.3846 15.303 23.7959 18.6973L23.7939 18.7002L16.793 27.8096L16 28.8408L15.207 27.8096L8.20703 18.7002L8.2041 18.6973C5.53175 15.1934 5.53175 10.3379 8.2041 6.83398H8.20508L8.38281 6.60742C10.2524 4.3009 13.029 3.00006 16 3ZM16 8.96484C14.0188 8.96495 12.3984 10.5847 12.3984 12.5527C12.3986 14.5206 14.0189 16.1395 16 16.1396C17.9812 16.1396 19.6014 14.5207 19.6016 12.5527C19.6016 10.5847 17.9813 8.96484 16 8.96484Z" stroke="currentColor" stroke-width="2"/>
</svg>
