<svg width="33" height="32" viewBox="0 0 33 32" fill="none" xmlns="http://www.w3.org/2000/svg">
<path d="M23.9434 11.3691C24.9233 12.7927 25.4999 14.5227 25.5 16.3916C25.5 21.1033 21.8457 24.9395 17.2656 25.1748L16.8193 25.1865H14.7715V27.5674L11.374 24.1357L14.7773 20.6855L14.792 23.0879H16.8193L17.1602 23.0791C20.6605 22.899 23.4395 19.9622 23.4395 16.3916C23.4394 15.1063 23.079 13.9034 22.4551 12.8818L23.9434 11.3691Z" fill="currentColor"/>
<path d="M21.625 8.43164L18.2217 11.8818L18.208 9.48047H16.1807C12.5217 9.48056 9.56055 12.491 9.56055 16.1768C9.5606 17.4616 9.92045 18.6642 10.5439 19.6855L9.05566 21.1982C8.07614 19.7749 7.50006 18.0452 7.5 16.1768C7.5 11.313 11.394 7.38192 16.1807 7.38184H18.2285V5L21.625 8.43164Z" fill="currentColor"/>
</svg>
