<svg width="33" height="32" viewBox="0 0 33 32" fill="none" xmlns="http://www.w3.org/2000/svg">
<path d="M18.3319 22.3292C16.5054 22.3308 14.7318 21.7164 13.2975 20.5852L7.88431 26L6.5 24.6153L11.9132 19.2005C10.7743 17.7468 10.1619 15.9498 10.1758 14.1029C10.1898 12.2561 10.8293 10.4686 11.9899 9.0322C13.1506 7.59584 14.7638 6.59555 16.5661 6.19466C18.3685 5.79378 20.2534 6.01599 21.9132 6.82502C23.573 7.63404 24.9095 8.98207 25.7046 10.649C26.4996 12.3159 26.7061 14.2032 26.2905 16.0027C25.8748 17.8021 24.8615 19.4075 23.416 20.5566C21.9705 21.7056 20.1783 22.3305 18.3319 22.3292ZM18.3319 7.95951C17.105 7.95951 15.9057 8.32343 14.8856 9.00526C13.8654 9.68708 13.0704 10.6562 12.6008 11.79C12.1313 12.9238 12.0085 14.1715 12.2478 15.3752C12.4872 16.5788 13.078 17.6845 13.9455 18.5523C14.8131 19.4201 15.9184 20.011 17.1217 20.2505C18.325 20.4899 19.5723 20.367 20.7058 19.8974C21.8393 19.4277 22.8081 18.6324 23.4897 17.612C24.1714 16.5915 24.5352 15.3919 24.5352 14.1646C24.5352 12.5189 23.8816 10.9406 22.7183 9.77694C21.555 8.61326 19.9771 7.95951 18.3319 7.95951Z" fill="#A6A8B5"/>
</svg>
