<svg width="32" height="32" viewBox="0 0 32 32" fill="none" xmlns="http://www.w3.org/2000/svg">
<path fill-rule="evenodd" clip-rule="evenodd" d="M16 8C13.8783 8 11.8434 8.84285 10.3431 10.3431C8.84285 11.8434 8 13.8783 8 16C8 17.0506 8.20693 18.0909 8.60896 19.0615C8.82249 19.577 9.08884 20.0675 9.40296 20.5254C11.4529 19.5202 13.7099 18.9966 16.0008 19C18.3657 19.0001 20.6052 19.548 22.5971 20.5252C22.9112 20.0674 23.1775 19.5769 23.391 19.0615C23.7931 18.0909 24 17.0506 24 16C24 13.8783 23.1571 11.8434 21.6569 10.3431C20.1566 8.84285 18.1217 8 16 8ZM23.6651 22.4223C24.3176 21.6436 24.8487 20.7686 25.2388 19.8268C25.7413 18.6136 26 17.3132 26 16C26 13.3478 24.9464 10.8043 23.0711 8.92893C21.1957 7.05357 18.6522 6 16 6C13.3478 6 10.8043 7.05357 8.92893 8.92893C7.05357 10.8043 6 13.3478 6 16C6 17.3132 6.25866 18.6136 6.7612 19.8268C7.1513 20.7686 7.68242 21.6436 8.33489 22.4223C8.34962 22.4411 8.36493 22.4592 8.38079 22.4767C8.55514 22.6818 8.73798 22.8801 8.92893 23.0711C9.85752 23.9997 10.9599 24.7362 12.1732 25.2388C13.3864 25.7413 14.6868 26 16 26C17.3132 26 18.6136 25.7413 19.8268 25.2388C21.0401 24.7362 22.1425 23.9997 23.0711 23.0711C23.262 22.8801 23.4449 22.6818 23.6192 22.4767C23.6351 22.4592 23.6504 22.4411 23.6651 22.4223ZM21.1985 22.0808C19.6072 21.3855 17.8496 21 16 21L15.9985 21C14.2054 20.9973 12.4363 21.3673 10.8018 22.081C11.4398 22.6264 12.1607 23.0688 12.9385 23.391C13.9091 23.7931 14.9494 24 16 24C17.0506 24 18.0909 23.7931 19.0615 23.391C19.8394 23.0688 20.5604 22.6263 21.1985 22.0808ZM16 12C15.4696 12 14.9609 12.2107 14.5858 12.5858C14.2107 12.9609 14 13.4696 14 14C14 14.5304 14.2107 15.0391 14.5858 15.4142C14.9609 15.7893 15.4696 16 16 16C16.5304 16 17.0391 15.7893 17.4142 15.4142C17.7893 15.0391 18 14.5304 18 14C18 13.4696 17.7893 12.9609 17.4142 12.5858C17.0391 12.2107 16.5304 12 16 12ZM13.1716 11.1716C13.9217 10.4214 14.9391 10 16 10C17.0609 10 18.0783 10.4214 18.8284 11.1716C19.5786 11.9217 20 12.9391 20 14C20 15.0609 19.5786 16.0783 18.8284 16.8284C18.0783 17.5786 17.0609 18 16 18C14.9391 18 13.9217 17.5786 13.1716 16.8284C12.4214 16.0783 12 15.0609 12 14C12 12.9391 12.4214 11.9217 13.1716 11.1716Z" fill="currentColor"/>
</svg>
