<svg width="32" height="32" viewBox="0 0 32 32" fill="none" xmlns="http://www.w3.org/2000/svg">
<path d="M13 16C14.6569 16 16 14.6569 16 13C16 11.3431 14.6569 10 13 10C11.3431 10 10 11.3431 10 13C10 14.6569 11.3431 16 13 16Z" stroke="currentColor" stroke-width="2"/>
<path d="M23.0002 17C25.0252 17 26.6668 15.3583 26.6668 13.3333C26.6668 11.3082 25.0252 9.66663 23.0002 9.66663C20.9751 9.66663 19.3335 11.3082 19.3335 13.3333C19.3335 15.3583 20.9751 17 23.0002 17Z" stroke="currentColor" stroke-width="2"/>
<path d="M16 22.2821C16 20.1013 19.134 18.3334 23 18.3334C26.866 18.3334 30 20.1013 30 22.2821V23H16V22.2821Z" stroke="currentColor" stroke-width="2"/>
<path d="M13.3691 23H6.32275V22.3846C6.32275 20.5154 8.49985 19 14.3691 19" stroke="currentColor" stroke-width="2"/>
</svg>
