<svg width="54" height="40" viewBox="0 0 54 40" fill="none" xmlns="http://www.w3.org/2000/svg">
<path d="M15.5344 20.2339H5.91791V39.4669H15.5344V20.2339Z" fill="black"/>
<path d="M26.6301 39.4671H36.9864L26.6301 20.9739V39.4671Z" fill="black"/>
<path d="M26.3865 19.4937H38.4661L27.4921 0.260742L21.4523 10.8454L26.3865 19.4937Z" fill="black"/>
<path d="M16.2745 19.4935H25.1512L20.7137 11.3564L16.2745 19.4935Z" fill="black"/>
<path d="M0 0.260742L5.917 10.617L11.8357 0.260742H0Z" fill="black"/>
<path d="M5.91791 19.4937H15.8348V10.9005L22.192 0.260742H12.3695L5.91791 11.0585V19.4937Z" fill="black"/>
<path d="M26.6301 20.2339L31.6176 29.1107C32.6351 28.7981 33.5087 28.1194 34.0784 27.199C34.648 26.2786 34.8754 25.1782 34.719 24.0995C34.5625 23.0209 34.0327 22.0363 33.2266 21.3263C32.4205 20.6163 31.3922 20.2285 30.3302 20.2339H26.6301Z" fill="black"/>
<path d="M16.2745 20.2339V39.4669C18.8249 39.4669 21.2709 38.4537 23.0744 36.6503C24.8778 34.8468 25.891 32.4008 25.891 29.8504C25.891 27.2999 24.8778 24.8539 23.0744 23.0505C21.2709 21.247 18.8249 20.2339 16.2745 20.2339Z" fill="black"/>
<path d="M44.3838 20.2339C42.4819 20.2339 40.6226 20.7979 39.0412 21.8546C37.4597 22.9112 36.2272 24.4131 35.4993 26.1703C34.7715 27.9275 34.5811 29.861 34.9521 31.7265C35.3232 33.5919 36.239 35.3054 37.5839 36.6503C38.9288 37.9952 40.6423 38.9111 42.5078 39.2821C44.3732 39.6532 46.3067 39.4627 48.0639 38.7349C49.8211 38.007 51.323 36.7744 52.3796 35.193C53.4363 33.6116 54.0003 31.7523 54.0003 29.8504C53.9973 27.3009 52.9832 24.8566 51.1804 23.0538C49.3776 21.251 46.9334 20.2369 44.3838 20.2339Z" fill="black"/>
</svg>
