<svg width="32" height="32" viewBox="0 0 32 32" fill="none" xmlns="http://www.w3.org/2000/svg">
<path d="M7.19826 23.6192L11.9297 18.0741L13.9333 20.0744L8.38913 24.8114C8.2335 24.9376 8.03814 25.0044 7.8379 24.9998C7.67761 24.9985 7.52099 24.9516 7.38634 24.8645C7.2517 24.7774 7.14458 24.6537 7.0775 24.508C7.01043 24.3622 6.98617 24.2003 7.00755 24.0413C7.02893 23.8822 7.09508 23.7326 7.19826 23.6097V23.6192ZM17.8972 21.3589C18.0231 21.4851 18.1838 21.5707 18.3586 21.6048C18.5334 21.6389 18.7145 21.6199 18.8784 21.5503C19.0424 21.4807 19.1819 21.3636 19.2789 21.214C19.3759 21.0645 19.4261 20.8893 19.423 20.711V17.6578L24.4366 14.6046C24.573 14.5256 24.6913 14.419 24.7839 14.2914C24.8766 14.1639 24.9416 14.0184 24.9747 13.8643C25.0079 13.7101 25.0084 13.5507 24.9763 13.3963C24.9443 13.2419 24.8803 13.096 24.7885 12.9678L19.0392 7.2118C18.9112 7.11989 18.7654 7.05581 18.6112 7.02369C18.457 6.99157 18.2978 6.99212 18.1438 7.02529C17.9898 7.05846 17.8445 7.12353 17.7171 7.21632C17.5898 7.3091 17.4832 7.42754 17.4043 7.56402L14.3547 12.5836H11.2995C11.1211 12.582 10.9464 12.6338 10.7977 12.7325C10.649 12.8312 10.5332 12.9721 10.4652 13.1372C10.3972 13.3023 10.3801 13.484 10.4162 13.659C10.4522 13.8339 10.5397 13.994 10.6674 14.1187L17.8972 21.3589Z" fill="currentColor"/>
</svg>
